<svg viewBox="0 0 128 128" xmlns="http://www.w3.org/2000/svg">
  <defs>
    <radialGradient id="bladeRGradient" r="0.8" gradientTransform="translate(-0.4,-0.2)">
      <stop offset="40%" stop-color="#755139" />
      <stop offset="100%" stop-color="#61432f"/>
    </radialGradient>
  </defs>
  
  <g id="pins">
    <rect x="22" y="0" width="4" height="20" fill="#eee" rx="3"
          stroke="#555" stroke-width="1" id="pin"/>
    <use href="#pin" x="10" />
    <use href="#pin" x="20" />
    <use href="#pin" x="30" />
    <use href="#pin" x="40" />
    <use href="#pin" x="50" />
    <use href="#pin" x="60" />
    <use href="#pin" x="70" />
    <use href="#pin" x="80" />
  </g>
  <use href="#pins" y="108"/>
  <use href="#pins" y="-20" transform="rotate(90)"/>
  <use href="#pins" y="-128" transform="rotate(90)"/>

  <rect x="10" y="10" width="108" height="108" fill="#d2b48c" rx="5"
        stroke="#755139" stroke-width="5" />
  <circle cx="64" cy="64" r="50" fill="#feedca" />

  <path id="blade"
        d="M 64,48
          Q 70 34 64 16
          A 48 48 0 0 1 92 25.5
          Q 88 40 70 64
          z"
        fill="url(#bladeRGradient)"/>
  <use href="#blade" transform="rotate(60, 64, 64)"/>
  <use href="#blade" transform="rotate(120, 64, 64)"/>
  <use href="#blade" transform="rotate(180, 64, 64)"/>
  <use href="#blade" transform="rotate(240, 64, 64)"/>
  <use href="#blade" transform="rotate(300, 64, 64)"/>
  <circle cx="64" cy="64" r="16" fill="#755139"/>
  <animateTransform attributeName="transform" attributeType="XML"
                    type="rotate" from="0 64 64" to="-360 64 64"
                    dur="1s" repeatCount="indefinite" />
</svg>
